<svg xmlns="http://www.w3.org/2000/svg" width="18.999" height="19" viewBox="0 0 18.999 19"><defs><style>.a{fill:#c42313;}</style></defs><g transform="translate(-0.025 0)"><path class="a" d="M18.322.046,16.312.961a1.209,1.209,0,0,0-.349.242L12.687,4.481,1.4,3.128A.67.67,0,0,0,.85,3.32l-.628.628a.671.671,0,0,0,.2,1.087L8.508,8.66,6.186,10.982H2.131a.678.678,0,0,0-.475.2l-.339.341a.671.671,0,0,0,.21,1.091l3.421,1.466L6.414,17.5a.671.671,0,0,0,1.091.21l.341-.341a.67.67,0,0,0,.2-.475V12.836l2.321-2.321L13.988,18.6a.671.671,0,0,0,1.087.2l.628-.628a.673.673,0,0,0,.192-.555L14.541,6.337l3.278-3.278a1.183,1.183,0,0,0,.242-.349L18.976.7A.493.493,0,0,0,18.322.046Z" transform="translate(0 0)"/></g></svg>