<svg xmlns="http://www.w3.org/2000/svg" width="22.453" height="38.454" viewBox="0 0 22.453 38.454"><defs><style>.a{fill:#fff;}</style></defs><g transform="translate(0 0)"><path class="a" d="M128.559,13.436,118.937.606a1.661,1.661,0,0,0-2.566,0l-9.623,12.83A1.6,1.6,0,0,0,108.031,16h4.811v6.415a1.6,1.6,0,0,0,1.6,1.6h6.415a1.6,1.6,0,0,0,1.6-1.6V16h4.811a1.6,1.6,0,0,0,1.283-2.566Z" transform="translate(-106.428 0)"/></g><g transform="translate(6.415 25.624)"><path class="a" d="M199.774,340.855h-6.415a1.6,1.6,0,0,0,0,3.208h6.415a1.6,1.6,0,0,0,0-3.208Z" transform="translate(-191.755 -340.855)"/></g><g transform="translate(6.415 30.436)"><path class="a" d="M199.774,404.855h-6.415a1.6,1.6,0,0,0,0,3.207h6.415a1.6,1.6,0,1,0,0-3.207Z" transform="translate(-191.755 -404.855)"/></g><g transform="translate(6.415 35.247)"><path class="a" d="M199.774,468.855h-6.415a1.6,1.6,0,0,0,0,3.207h6.415a1.6,1.6,0,1,0,0-3.207Z" transform="translate(-191.755 -468.855)"/></g></svg>