<svg xmlns="http://www.w3.org/2000/svg" width="35.91" height="31.473" viewBox="0 0 35.91 31.473"><defs><style>.a{fill:#fff;stroke:#fff;stroke-width:0.5px;}</style></defs><g transform="translate(0.264 -31.75)"><g transform="translate(4.424 43.799)"><path class="a" d="M86.849,202.654H66.2a2.215,2.215,0,0,0-2.212,2.212v1.475A13.977,13.977,0,0,0,71.573,218.8a.738.738,0,0,0,.677-1.311,12.505,12.505,0,0,1-6.787-11.144v-1.475a.738.738,0,0,1,.737-.737H86.849a.738.738,0,0,1,.737.737v1.475A12.5,12.5,0,0,1,80.8,217.484a.738.738,0,0,0,.339,1.394.727.727,0,0,0,.338-.083,13.97,13.97,0,0,0,7.587-12.454v-1.475A2.215,2.215,0,0,0,86.849,202.654Z" transform="translate(-63.988 -202.654)"/></g><g transform="translate(0 58.546)"><g transform="translate(0)"><path class="a" d="M33.867,416.422a.739.739,0,0,0-.681-.456H.738a.738.738,0,0,0-.522,1.26l1.653,1.655a5.131,5.131,0,0,0,3.65,1.512H28.4a5.14,5.14,0,0,0,3.653-1.512l1.653-1.655A.736.736,0,0,0,33.867,416.422Zm-2.857,1.416a3.666,3.666,0,0,1-2.608,1.08H5.519a3.666,3.666,0,0,1-2.608-1.08l-.4-.4H31.405Z" transform="translate(0 -415.966)"/></g></g><g transform="translate(24.549 46.745)"><path class="a" d="M364.514,245.808c-1.987-1.277-5.161.109-5.516.27a.738.738,0,1,0,.612,1.344c.711-.323,2.991-1.088,4.106-.37a2.1,2.1,0,0,1,.749,1.911c0,2.953-5.956,4.737-8.255,5.177l-.522.1a.737.737,0,0,0,.142,1.46.683.683,0,0,0,.143-.015l.518-.1c.386-.074,9.45-1.851,9.45-6.624A3.479,3.479,0,0,0,364.514,245.808Z" transform="translate(-355.093 -245.272)"/></g><g transform="translate(20.648 32.001)"><path class="a" d="M300.72,37.622a4.418,4.418,0,0,0,0-5.344.738.738,0,0,0-1.152.922,2.975,2.975,0,0,1,0,3.5,4.414,4.414,0,0,0,0,5.344.738.738,0,1,0,1.152-.922A2.97,2.97,0,0,1,300.72,37.622Z" transform="translate(-298.666 -32.001)"/></g><g transform="translate(16.219 32.001)"><path class="a" d="M236.65,37.63a4.414,4.414,0,0,0,0-5.344.738.738,0,1,0-1.152.922,2.97,2.97,0,0,1,0,3.5,4.418,4.418,0,0,0,0,5.344.738.738,0,1,0,1.152-.922A2.975,2.975,0,0,1,236.65,37.63Z" transform="translate(-234.597 -32.009)"/></g><g transform="translate(11.799 32.002)"><g transform="translate(0 0)"><path class="a" d="M172.72,37.643a4.418,4.418,0,0,0,0-5.344.737.737,0,0,0-1.152.92,2.975,2.975,0,0,1,0,3.5,4.414,4.414,0,0,0,0,5.344.737.737,0,1,0,1.152-.92A2.97,2.97,0,0,1,172.72,37.643Z" transform="translate(-170.666 -32.022)"/></g></g></g></svg>