<svg xmlns="http://www.w3.org/2000/svg" width="12.792" height="21.545" viewBox="0 0 12.792 21.545"><defs><style>.a{fill:#fff;}</style></defs><g transform="translate(-104.017 0)"><path class="a" d="M114.789,21.545h-8.752a2.022,2.022,0,0,1-2.02-2.02V6.4a6.4,6.4,0,0,1,12.791-.048,2.02,2.02,0,1,1-4.039.048A2.356,2.356,0,0,0,110.4,4.04a2.455,2.455,0,0,0-1.875,3.926,2.681,2.681,0,0,0,1.253.988l5.3,2.039a2.709,2.709,0,0,1,1.726,2.513v6.018A2.022,2.022,0,0,1,114.789,21.545Zm-4.376-20.2A5.046,5.046,0,0,0,105.363,6.4V19.525a.674.674,0,0,0,.673.673h8.752a.674.674,0,0,0,.673-.673V13.507a1.354,1.354,0,0,0-.863-1.257l-5.3-2.039a4.038,4.038,0,0,1-2.588-3.828,3.7,3.7,0,0,1,7.405.014.673.673,0,0,0,.679.673.7.7,0,0,0,.667-.711A5.047,5.047,0,0,0,110.413,1.348Z" transform="translate(0 0)"/><path class="a" d="M174.707,353.38H168.69a.673.673,0,1,1,0-1.346h6.017a.673.673,0,0,1,0,1.346Z" transform="translate(-61.307 -337.222)"/><path class="a" d="M174.707,417.38H168.69a.673.673,0,1,1,0-1.346h6.017a.673.673,0,1,1,0,1.346Z" transform="translate(-61.307 -398.529)"/></g></svg>