<svg xmlns="http://www.w3.org/2000/svg" width="12.105" height="13.968" viewBox="0 0 12.105 13.968"><defs><style>.a{fill:#fff;stroke:#fff;stroke-width:0.3px;}</style></defs><g transform="translate(-87.342 -56.088) rotate(31)"><g transform="translate(109.301)"><g transform="translate(0)"><path class="a" d="M115.556,4.04l-1.64-2.073a1.765,1.765,0,0,0-1.126-.648V.249a.249.249,0,1,0-.5,0V1.318a1.733,1.733,0,0,0-1.124.648l-1.645,2.076a1.038,1.038,0,0,0-.222.638v6.227a1.021,1.021,0,0,0,1.024,1.017h4.423a1.021,1.021,0,0,0,1.029-1.012V4.68A1.051,1.051,0,0,0,115.556,4.04Zm-3.015-.292a.725.725,0,1,1-.725.725A.724.724,0,0,1,112.541,3.748Zm2.741,7.159a.522.522,0,0,1-.531.518H110.33a.522.522,0,0,1-.531-.518V4.68a.523.523,0,0,1,.115-.329l1.642-2.076a1.25,1.25,0,0,1,.735-.451v1.45a1.224,1.224,0,1,0,.5,0V1.824a1.26,1.26,0,0,1,.3.1,1.243,1.243,0,0,1,.436.351l1.645,2.073a.535.535,0,0,1,.115.331Z" transform="translate(-109.301)"/></g></g></g></svg>