<svg xmlns="http://www.w3.org/2000/svg" width="9.99" height="9.99" viewBox="0 0 9.99 9.99"><defs><style>.a{fill:#c42313;stroke:#c42313;stroke-width:0.2px;}</style></defs><g transform="translate(0.1 0.096)"><g transform="translate(0 0.703)"><path class="a" d="M8.042,38.333a.35.35,0,0,0-.35.35v3.5a.35.35,0,0,1-.35.35H1.049a.35.35,0,0,1-.35-.35V35.186a.35.35,0,0,1,.35-.35h4.2a.35.35,0,1,0,0-.7h-4.2A1.049,1.049,0,0,0,0,35.186v6.993a1.049,1.049,0,0,0,1.049,1.049H7.342a1.049,1.049,0,0,0,1.049-1.049v-3.5A.35.35,0,0,0,8.042,38.333Z" transform="translate(0 -34.137)"/></g><g transform="translate(2.098 0.004)"><g transform="translate(0 0)"><path class="a" d="M109.709.4a1.338,1.338,0,0,0-1.893,0L103.21,5a.353.353,0,0,0-.084.137l-.7,2.1a.35.35,0,0,0,.331.46.355.355,0,0,0,.11-.018l2.1-.7a.35.35,0,0,0,.137-.085l4.605-4.605A1.338,1.338,0,0,0,109.709.4Zm-.495,1.4L104.669,6.34l-1.358.453.452-1.356L108.31.892a.639.639,0,1,1,.9.9Z" transform="translate(-102.409 -0.004)"/></g></g></g></svg>