<svg xmlns="http://www.w3.org/2000/svg" width="10.816" height="6.447" viewBox="0 0 10.816 6.447"><defs><style>.a{opacity:0.7;}</style></defs><g class="a" transform="translate(0 -98.725)"><path d="M5.408,98.725a6.747,6.747,0,0,0-5.323,2.967.428.428,0,0,0,0,.511,6.744,6.744,0,0,0,5.323,2.969,6.747,6.747,0,0,0,5.323-2.967.428.428,0,0,0,0-.511A6.744,6.744,0,0,0,5.408,98.725Zm.148,5.494A2.275,2.275,0,1,1,7.678,102.1,2.276,2.276,0,0,1,5.556,104.219Zm-.069-1.049a1.225,1.225,0,1,1,1.144-1.144A1.223,1.223,0,0,1,5.488,103.17Z" transform="translate(0 0)"/></g></svg>