<svg xmlns="http://www.w3.org/2000/svg" width="22.781" height="22.781" viewBox="0 0 22.781 22.781"><defs><style>.a{fill:#c42313;}</style></defs><path class="a" d="M11.615,22.783h-.227c-1.786,0-3.436-.041-5.04-.139a6.737,6.737,0,0,1-3.884-1.47A6.234,6.234,0,0,1,.37,17.792a14.986,14.986,0,0,1-.344-3.578C.014,13.382,0,12.4,0,11.394S.014,9.4.026,8.571A14.987,14.987,0,0,1,.37,4.992,6.234,6.234,0,0,1,2.464,1.61,6.738,6.738,0,0,1,6.348.14C7.953.043,9.6,0,11.392,0s3.436.041,5.04.139a6.737,6.737,0,0,1,3.884,1.47,6.233,6.233,0,0,1,2.095,3.382,14.986,14.986,0,0,1,.344,3.578c.011.832.023,1.817.026,2.819v0c0,1-.014,1.988-.026,2.819a14.978,14.978,0,0,1-.344,3.578,6.233,6.233,0,0,1-2.095,3.382,6.737,6.737,0,0,1-3.884,1.47C14.9,22.737,13.318,22.783,11.615,22.783ZM11.388,21c1.757,0,3.37-.04,4.936-.135a4.9,4.9,0,0,0,2.867-1.073,4.493,4.493,0,0,0,1.495-2.443,13.634,13.634,0,0,0,.289-3.163c.011-.826.023-1.8.026-2.8s-.014-1.971-.026-2.8a13.636,13.636,0,0,0-.289-3.163A4.493,4.493,0,0,0,19.192,2.99a4.9,4.9,0,0,0-2.867-1.073c-1.567-.1-3.18-.139-4.932-.136s-3.369.04-4.936.136A4.9,4.9,0,0,0,3.589,2.99,4.493,4.493,0,0,0,2.094,5.432a13.635,13.635,0,0,0-.289,3.163c-.011.827-.023,1.806-.026,2.8s.014,1.968.026,2.8a13.634,13.634,0,0,0,.289,3.163,4.493,4.493,0,0,0,1.495,2.443,4.9,4.9,0,0,0,2.867,1.073C8.023,20.962,9.636,21.007,11.388,21Zm-.042-4.049a5.562,5.562,0,1,1,5.562-5.562A5.568,5.568,0,0,1,11.346,16.954Zm0-9.344a3.782,3.782,0,1,0,3.782,3.782A3.786,3.786,0,0,0,11.346,7.61ZM17.53,4.05a1.335,1.335,0,1,0,1.335,1.335A1.335,1.335,0,0,0,17.53,4.05Zm0,0" transform="translate(0 -0.001)"/></svg>