<?xml version="1.0" standalone="no"?>
<!DOCTYPE svg PUBLIC "-//W3C//DTD SVG 20010904//EN"
 "http://www.w3.org/TR/2001/REC-SVG-20010904/DTD/svg10.dtd">
<svg version="1.0" xmlns="http://www.w3.org/2000/svg"
 width="512.000000pt" height="512.000000pt" viewBox="0 0 512.000000 512.000000"
 preserveAspectRatio="xMidYMid meet">

<g transform="translate(0.000000,512.000000) scale(0.100000,-0.100000)"
fill="#9daab2" stroke="none">
<path d="M0 2560 l0 -2560 2560 0 2560 0 0 2560 0 2560 -2560 0 -2560 0 0
-2560z m3586 1759 c181 -32 332 -109 468 -238 141 -136 232 -304 265 -495 15
-82 15 -1970 0 -2052 -33 -191 -124 -359 -265 -495 -136 -129 -287 -206 -468
-238 -82 -15 -1970 -15 -2052 0 -181 32 -332 109 -468 238 -141 136 -232 304
-265 495 -15 82 -15 1970 0 2052 33 191 124 359 265 495 132 126 269 198 444
234 84 17 1981 21 2076 4z"/>
<path d="M1603 3939 c-175 -30 -333 -156 -392 -314 -40 -107 -42 -157 -39
-1110 l3 -920 23 -66 c54 -162 176 -281 337 -332 l70 -22 955 0 955 0 70 22
c165 52 286 173 338 338 l22 70 0 955 0 955 -22 70 c-51 163 -169 282 -332
338 l-66 22 -935 1 c-514 1 -958 -2 -987 -7z m1999 -250 c84 -43 131 -145 108
-237 -43 -182 -285 -225 -387 -70 -40 59 -44 155 -11 218 57 105 182 144 290
89z m-803 -248 c319 -93 550 -326 643 -648 19 -66 23 -102 23 -233 0 -131 -4
-167 -23 -233 -47 -164 -125 -297 -239 -410 -86 -84 -147 -128 -248 -177 -141
-69 -217 -85 -395 -85 -170 0 -243 15 -376 75 -136 61 -279 180 -370 305 -48
66 -107 192 -134 285 -31 107 -38 298 -15 411 74 365 345 642 710 723 102 23
324 16 424 -13z"/>
<path d="M2495 3084 c-269 -41 -459 -258 -459 -524 0 -294 230 -523 524 -524
294 0 524 230 524 524 0 281 -209 504 -490 523 -38 3 -82 3 -99 1z"/>
</g>
</svg>
