<?xml version="1.0" standalone="no"?>
<!DOCTYPE svg PUBLIC "-//W3C//DTD SVG 20010904//EN"
 "http://www.w3.org/TR/2001/REC-SVG-20010904/DTD/svg10.dtd">
<svg version="1.0" xmlns="http://www.w3.org/2000/svg"
 width="512.000000pt" height="512.000000pt" viewBox="0 0 512.000000 512.000000"
 preserveAspectRatio="xMidYMid meet">

<g transform="translate(0.000000,512.000000) scale(0.100000,-0.100000)"
fill="#9daab2" stroke="none">
<path d="M0 2560 l0 -2560 2560 0 2560 0 0 2560 0 2560 -2560 0 -2560 0 0
-2560z m2680 2070 c227 -28 423 -120 589 -277 333 -312 430 -797 241 -1201
-149 -318 -436 -537 -779 -596 -534 -91 -1047 246 -1188 782 -22 82 -26 119
-26 242 0 212 44 375 149 552 67 113 230 277 344 347 208 127 440 179 670 151z
m-1033 -2106 c26 -9 85 -41 132 -71 248 -158 488 -227 786 -227 295 0 529 68
769 224 97 63 164 90 221 90 165 0 300 -212 227 -357 -25 -49 -134 -149 -235
-216 -96 -64 -230 -128 -349 -166 -93 -29 -343 -81 -393 -81 -13 0 -27 -5 -31
-11 -3 -6 167 -185 403 -422 366 -368 412 -417 427 -461 20 -61 20 -79 1 -143
-31 -104 -146 -194 -249 -195 -100 -1 -120 15 -456 352 -255 255 -314 310
-337 310 -22 0 -84 -57 -348 -319 -293 -292 -324 -320 -373 -336 -67 -22 -119
-15 -190 26 -54 31 -107 93 -129 152 -20 54 -16 129 10 176 12 23 198 220 425
450 221 226 399 412 395 414 -5 2 -37 7 -73 11 -340 36 -667 176 -866 371 -85
83 -111 144 -94 222 38 167 179 257 327 207z"/>
<path d="M2410 4081 c-87 -28 -134 -56 -205 -123 -220 -205 -210 -575 21 -763
73 -59 144 -92 240 -112 190 -39 397 43 508 201 70 100 89 155 94 278 4 88 1
118 -16 175 -51 166 -183 297 -351 347 -74 22 -219 20 -291 -3z"/>
</g>
</svg>
