<svg xmlns="http://www.w3.org/2000/svg" width="38.835" height="29.932" viewBox="0 0 38.835 29.932"><defs><style>.a{fill:#c42313;}</style></defs><path class="a" d="M242.138,7.456a1.138,1.138,0,0,0,1.138-1.138V1.138a1.138,1.138,0,1,0-2.275,0v5.18A1.138,1.138,0,0,0,242.138,7.456Z" transform="translate(-222.72)"/><path class="a" d="M420.024,241h-5.18a1.138,1.138,0,0,0,0,2.275h5.18a1.138,1.138,0,1,0,0-2.275Z" transform="translate(-382.326 -222.72)"/><path class="a" d="M7.456,242.138A1.138,1.138,0,0,0,6.318,241H1.138a1.138,1.138,0,1,0,0,2.275h5.18A1.138,1.138,0,0,0,7.456,242.138Z" transform="translate(0 -222.72)"/><path class="a" d="M382.061,70.128a1.134,1.134,0,0,0,.8-.333l2.8-2.8a1.138,1.138,0,0,0-1.609-1.609l-2.8,2.8a1.138,1.138,0,0,0,.8,1.942Z" transform="translate(-352.03 -60.123)"/><path class="a" d="M67.351,69.795a1.138,1.138,0,0,0,1.609-1.609l-2.8-2.8A1.138,1.138,0,0,0,64.556,67Z" transform="translate(-59.351 -60.123)"/><path class="a" d="M85.089,140.119H80.105a9.822,9.822,0,1,0-18.119,0H57a1.138,1.138,0,0,0,0,2.276H85.089a1.138,1.138,0,0,0,0-2.276Zm-21.589-3.8a7.547,7.547,0,1,1,14.07,3.8H64.523A7.536,7.536,0,0,1,63.5,136.323Z" transform="translate(-51.629 -116.905)"/><path class="a" d="M162.2,364.614H147.908a1.138,1.138,0,0,0,0,2.276H162.2a1.138,1.138,0,1,0,0-2.276Z" transform="translate(-135.637 -336.958)"/></svg>