<svg xmlns="http://www.w3.org/2000/svg" width="9.574" height="11.784" viewBox="0 0 9.574 11.784"><g transform="translate(-48)"><path d="M56.654,1.473H54.628V1.1a1.106,1.106,0,0,0-1.1-1.1H52.051a1.106,1.106,0,0,0-1.1,1.1v.368H48.921A.922.922,0,0,0,48,2.394V3.682a.368.368,0,0,0,.368.368h.2l.318,6.681a1.1,1.1,0,0,0,1.1,1.052h5.592a1.1,1.1,0,0,0,1.1-1.052L57,4.051h.2a.368.368,0,0,0,.368-.368V2.394A.922.922,0,0,0,56.654,1.473ZM51.682,1.1a.369.369,0,0,1,.368-.368h1.473a.369.369,0,0,1,.368.368v.368H51.682ZM48.736,2.394a.184.184,0,0,1,.184-.184h7.733a.184.184,0,0,1,.184.184v.921h-8.1Zm7.215,8.3a.368.368,0,0,1-.368.351H49.991a.368.368,0,0,1-.368-.351l-.316-6.646h6.961Z"/><path d="M240.368,213.524a.368.368,0,0,0,.368-.368v-4.787a.368.368,0,1,0-.736,0v4.787A.368.368,0,0,0,240.368,213.524Z" transform="translate(-187.581 -203.213)"/><path d="M320.368,213.524a.368.368,0,0,0,.368-.368v-4.787a.368.368,0,1,0-.736,0v4.787A.368.368,0,0,0,320.368,213.524Z" transform="translate(-265.74 -203.213)"/><path d="M160.368,213.524a.368.368,0,0,0,.368-.368v-4.787a.368.368,0,1,0-.736,0v4.787A.368.368,0,0,0,160.368,213.524Z" transform="translate(-109.422 -203.213)"/></g></svg>