<?xml version="1.0" standalone="no"?>
<!DOCTYPE svg PUBLIC "-//W3C//DTD SVG 20010904//EN"
 "http://www.w3.org/TR/2001/REC-SVG-20010904/DTD/svg10.dtd">
<svg version="1.0" xmlns="http://www.w3.org/2000/svg"
 width="512.000000pt" height="512.000000pt" viewBox="0 0 512.000000 512.000000"
 preserveAspectRatio="xMidYMid meet">

<g transform="translate(0.000000,512.000000) scale(0.100000,-0.100000)"
fill="#9daab2" stroke="none">
<path d="M0 2560 l0 -2560 2560 0 2560 0 0 2560 0 2560 -2560 0 -2560 0 0
-2560z m3388 1424 c126 -26 260 -96 357 -186 l31 -28 59 15 c108 28 209 64
300 109 50 24 92 43 94 41 6 -6 -47 -113 -83 -168 -37 -56 -125 -147 -186
-193 l-35 -26 50 7 c71 9 196 42 273 71 36 13 67 22 70 20 14 -14 -166 -215
-265 -296 l-80 -65 -6 -160 c-7 -181 -24 -299 -68 -465 -153 -575 -545 -1069
-1050 -1321 -192 -96 -358 -150 -586 -190 -168 -30 -520 -33 -678 -6 -234 41
-411 99 -615 203 -192 97 -191 93 -18 94 312 0 595 86 836 253 l75 51 -84 13
c-46 6 -111 21 -144 33 -137 47 -279 158 -359 278 -38 59 -86 153 -86 171 0 4
53 6 118 6 64 0 135 4 157 9 l40 8 -67 23 c-284 98 -475 335 -504 625 -7 69
-6 73 12 65 79 -33 192 -66 245 -72 l64 -6 -61 50 c-115 96 -197 229 -235 383
-18 71 -21 103 -16 205 5 122 24 200 69 288 l19 38 122 -124 c283 -287 607
-475 974 -566 123 -31 304 -61 367 -61 l36 0 -6 63 c-3 34 -7 69 -8 79 -8 38
14 180 39 254 82 245 310 441 563 484 79 13 189 11 270 -6z"/>
</g>
</svg>
