<svg xmlns="http://www.w3.org/2000/svg" width="17.331" height="21.955" viewBox="0 0 17.331 21.955"><defs><style>.a{fill:#fff;}</style></defs><g transform="translate(-61.359)"><g transform="translate(61.359)"><path class="a" d="M78.576,20.562,75.357,14.7a1.906,1.906,0,0,0,1.585-1.874V4.18A4.183,4.183,0,0,0,72.763,0H67.286a4.234,4.234,0,0,0-4.228,4.228v8.6A1.87,1.87,0,0,0,64.643,14.7l-3.171,5.861a.946.946,0,0,0,.384,1.3.714.714,0,0,0,.432.1.93.93,0,0,0,.817-.48l.288-.48h13.26l.288.48a.892.892,0,0,0,.817.48,1.4,1.4,0,0,0,.432-.1A.946.946,0,0,0,78.576,20.562ZM74.06,16.238H65.989l.817-1.489h6.438Zm-.144-3.219a1.393,1.393,0,1,1,1.393-1.393A1.426,1.426,0,0,1,73.916,13.019ZM64.74,4.756a2.676,2.676,0,0,1,2.642-2.69h5.237a2.717,2.717,0,0,1,2.69,2.69V7.062a.924.924,0,0,1-.961.913H65.7a.912.912,0,0,1-.913-.913L64.74,4.756Zm1.393,5.429a1.393,1.393,0,1,1-1.393,1.393A1.394,1.394,0,0,1,66.133,10.185Zm-1.97,9.368,1.057-1.874h9.608l1.057,1.874Z" transform="translate(-61.359)"/></g></g></svg>