<svg xmlns="http://www.w3.org/2000/svg" width="8.189" height="8.788" viewBox="0 0 8.189 8.788"><g transform="translate(0)"><g transform="translate(0 4.95)"><path d="M21.534,288.389c-2.64,0-4.094,1.249-4.094,3.517a.321.321,0,0,0,.321.321h7.547a.321.321,0,0,0,.321-.321C25.629,289.638,24.175,288.389,21.534,288.389Zm-3.441,3.2c.126-1.7,1.282-2.555,3.441-2.555s3.315.859,3.441,2.555Z" transform="translate(-17.44 -288.389)"/></g><g transform="translate(1.967)"><path d="M134.176,0a2.1,2.1,0,0,0-2.127,2.17,2.135,2.135,0,1,0,4.255,0A2.1,2.1,0,0,0,134.176,0Zm0,3.838A1.587,1.587,0,0,1,132.69,2.17,1.458,1.458,0,0,1,134.176.641a1.475,1.475,0,0,1,1.486,1.529A1.586,1.586,0,0,1,134.176,3.838Z" transform="translate(-132.049)"/></g></g></svg>