<svg xmlns="http://www.w3.org/2000/svg" width="7.495" height="8.006" viewBox="0 0 7.495 8.006"><defs><style>.a{fill:#fff;stroke:#fff;stroke-width:0.5px;}</style></defs><g transform="translate(0.25 0.25)"><g transform="translate(0 4.228)"><path class="a" d="M20.937,288.389c-2.255,0-3.5,1.067-3.5,3a.274.274,0,0,0,.274.274h6.447a.274.274,0,0,0,.274-.274C24.435,289.456,23.193,288.389,20.937,288.389ZM18,291.119c.108-1.449,1.1-2.182,2.94-2.182s2.832.734,2.94,2.182Z" transform="translate(-17.44 -288.389)"/></g><g transform="translate(1.68)"><path class="a" d="M133.866,0a1.8,1.8,0,0,0-1.817,1.854,1.823,1.823,0,1,0,3.634,0A1.8,1.8,0,0,0,133.866,0Zm0,3.278A1.355,1.355,0,0,1,132.6,1.854,1.246,1.246,0,0,1,133.866.548a1.26,1.26,0,0,1,1.269,1.306A1.355,1.355,0,0,1,133.866,3.278Z" transform="translate(-132.049)"/></g></g></svg>