<svg xmlns="http://www.w3.org/2000/svg" width="17.094" height="17.094" viewBox="0 0 17.094 17.094"><defs><style>.a{fill:#c42313;stroke:#c42313;}</style></defs><g transform="translate(0.5 0.5)"><path class="a" d="M20.371,21.042a.669.669,0,0,1-.474-.2l-4.681-4.681a.67.67,0,0,1,.948-.948L20.845,19.9a.671.671,0,0,1-.474,1.145Z" transform="translate(-4.948 -4.948)"/><path class="a" d="M6.538,13.077a6.538,6.538,0,1,1,6.538-6.538A6.546,6.546,0,0,1,6.538,13.077Zm0-11.735a5.2,5.2,0,1,0,5.2,5.2A5.2,5.2,0,0,0,6.538,1.341Z"/></g></svg>