<?xml version="1.0" standalone="no"?>
<!DOCTYPE svg PUBLIC "-//W3C//DTD SVG 20010904//EN"
 "http://www.w3.org/TR/2001/REC-SVG-20010904/DTD/svg10.dtd">
<svg version="1.0" xmlns="http://www.w3.org/2000/svg"
 width="512.000000pt" height="512.000000pt" viewBox="0 0 512.000000 512.000000"
 preserveAspectRatio="xMidYMid meet">

<g transform="translate(0.000000,512.000000) scale(0.100000,-0.100000)"
fill="#9daab2" stroke="none">
<path d="M0 2560 l0 -2560 2560 0 2560 0 0 2560 0 2560 -2560 0 -2560 0 0
-2560z m2790 978 c56 -38 58 -57 59 -444 1 -381 7 -428 56 -474 38 -36 78 -31
126 16 138 133 301 398 424 691 56 133 79 158 160 168 30 4 192 3 359 -1 303
-9 305 -9 330 -33 32 -30 33 -66 6 -146 -41 -119 -110 -225 -369 -570 -135
-179 -191 -269 -191 -308 0 -51 45 -109 196 -252 310 -295 421 -464 370 -563
-33 -64 -29 -63 -398 -60 l-333 3 -65 32 c-74 37 -104 64 -288 260 -104 112
-142 145 -178 159 -42 16 -47 16 -80 1 -63 -31 -97 -113 -113 -282 -17 -168
-38 -180 -301 -172 -233 7 -356 35 -535 122 -176 85 -358 237 -508 425 -203
255 -446 668 -642 1090 -81 174 -91 205 -81 243 11 45 43 49 355 49 339 0 337
0 383 -92 15 -30 67 -138 117 -240 141 -291 321 -547 397 -566 88 -22 124 58
139 311 7 116 -8 323 -27 389 -17 55 -73 111 -128 127 -25 7 -49 16 -54 20
-16 14 17 61 63 91 l45 28 336 0 c333 0 337 0 370 -22z"/>
</g>
</svg>
