<svg xmlns="http://www.w3.org/2000/svg" width="12.507" height="11.749" viewBox="0 0 12.507 11.749"><defs><style>.a{fill:#c42313;}</style></defs><g transform="translate(0 -10)"><path class="a" d="M80.969,13.623l1.683-1.682v6.965a.568.568,0,0,0,1.137,0V11.941l1.682,1.682a.568.568,0,0,0,.8-.8l-2.653-2.653q-.02-.02-.042-.038l-.019-.014-.025-.019-.024-.015-.024-.014-.025-.012-.025-.012-.025-.009-.028-.01-.025-.006-.029-.007-.029,0-.026,0-.053,0h-.007l-.053,0-.026,0-.029,0-.028.007-.026.007-.027.009L83,10.043l-.024.011-.026.013-.023.013L82.9,10.1l-.024.018-.021.016c-.014.011-.027.023-.04.036l0,0-2.653,2.653a.568.568,0,0,0,.8.8Z" transform="translate(-76.967)"/><path class="a" d="M11.938,160a.569.569,0,0,0-.568.568v4.358H1.137v-4.358a.568.568,0,1,0-1.137,0V165.5a.569.569,0,0,0,.568.568h11.37a.569.569,0,0,0,.568-.568v-4.927A.569.569,0,0,0,11.938,160Z" transform="translate(0 -144.315)"/></g></svg>