<svg xmlns="http://www.w3.org/2000/svg" width="27.063" height="27.063" viewBox="0 0 27.063 27.063"><defs><style>.a{fill:#c42313;}</style></defs><path class="a" d="M224.113,213.109l4.4-2.535-4.4-2.535Zm0,0" transform="translate(-212.267 -197.043)"/><path class="a" d="M13.531,0A13.531,13.531,0,1,0,27.063,13.531,13.533,13.533,0,0,0,13.531,0Zm8.455,13.545a22.333,22.333,0,0,1-.348,4.067,2.119,2.119,0,0,1-1.491,1.49,51.429,51.429,0,0,1-6.616.348,49.589,49.589,0,0,1-6.616-.362A2.119,2.119,0,0,1,5.424,17.6a22.235,22.235,0,0,1-.348-4.067,22.318,22.318,0,0,1,.348-4.067,2.162,2.162,0,0,1,1.491-1.5,51.429,51.429,0,0,1,6.616-.348,49.484,49.484,0,0,1,6.616.362,2.119,2.119,0,0,1,1.491,1.491A21.193,21.193,0,0,1,21.986,13.545Zm0,0"/></svg>